# xmcd
#
# Track frame offsets:
#	150
#	24740
#	47300
#	62192
#	82017
#	103115
#	113712
#	128665
#	147920
#	166652
#	191007
#	206395
#	218987
#
# Disc length: 3139
#
# Revision: 4
# Processed by: cddbd v1.5.1PL0 Copyright (c) Steve Scherf et al.
# Submitted via: ExactAudioCopy v0.90b4
# Normalized: r3:DSETVAR1
#
DISCID=b30c410d
DTITLE=Various Artist - KFOG: Live From The Archives Vol. 1
DYEAR=1994
DGENRE=Rock
TTITLE0=Boz Scaggs - Some Change
TTITLE1=Crowded House - World Where You Live
TTITLE2=Cowboy Junkies - Anniversary Song
TTITLE3=John Hiatt - Slow Turning
TTITLE4=Big Head Todd and The Monsters - Dinner With Ivan
TTITLE5=Squeeze - Take Me I'm Yours
TTITLE6=Freedy Johnston - Evie's Tears
TTITLE7=Brian Setzer Orchestra - Stray Cat Strut
TTITLE8=Smithereens - Everything I Have Is Blue
TTITLE9=Freddy Jones Band - Take The TIme
TTITLE10=Jackopierce - Late Shift
TTITLE11=Texas - So Called Friend
TTITLE12=Love Spit Love - Wake Up
EXTD=A CD comissioned to benefit Bay Area Food Banks.
EXTT0=
EXTT1=
EXTT2=
EXTT3=
EXTT4=
EXTT5=
EXTT6=
EXTT7=
EXTT8=
EXTT9=
EXTT10=
EXTT11=
EXTT12=
PLAYORDER=
